<?xml version="1.0" standalone="no"?>
<!DOCTYPE svg PUBLIC "-//W3C//DTD SVG 20010904//EN"
 "http://www.w3.org/TR/2001/REC-SVG-20010904/DTD/svg10.dtd">
<svg version="1.0" xmlns="http://www.w3.org/2000/svg"
 width="270.000000pt" height="270.000000pt" viewBox="0 0 270.000000 270.000000"
 preserveAspectRatio="xMidYMid meet">
<metadata>
Created by potrace 1.11, written by Peter Selinger 2001-2013
</metadata>
<g transform="translate(0.000000,270.000000) scale(0.100000,-0.100000)"
fill="#000000" stroke="none">
<path d="M687 1355 c-361 -651 -657 -1189 -657 -1195 0 -7 418 -10 1320 -10
726 0 1320 4 1320 8 0 11 -1299 2353 -1314 2369 -8 9 -169 -273 -669 -1172z
m1259 -46 c324 -584 591 -1066 592 -1070 2 -5 -516 -9 -1187 -9 -655 0 -1191
3 -1191 6 0 12 1182 2134 1189 2134 4 0 273 -478 597 -1061z"/>
</g>
</svg>
